<mxfile host="Electron" modified="2024-02-16T21:44:03.137Z" agent="Mozilla/5.0 (Windows NT 10.0; Win64; x64) AppleWebKit/537.36 (KHTML, like Gecko) draw.io/22.1.11 Chrome/114.0.5735.289 Electron/25.9.8 Safari/537.36" etag="-ot4aXSk8Y4vlAzGpPYG" version="22.1.11" type="device">
  <diagram id="VXh5Syn-KjilQUAD4XYl" name="Страница 1">
    <mxGraphModel dx="1036" dy="1782" grid="1" gridSize="10" guides="1" tooltips="1" connect="1" arrows="1" fold="1" page="1" pageScale="1" pageWidth="827" pageHeight="1169" math="0" shadow="0">
      <root>
        <mxCell id="0" />
        <mxCell id="1" parent="0" />
        <mxCell id="6_OY5yNYIMLlSlW97ewB-2" style="edgeStyle=orthogonalEdgeStyle;rounded=0;orthogonalLoop=1;jettySize=auto;html=1;entryX=0.5;entryY=0;entryDx=0;entryDy=0;" parent="1" source="RadNlG-xPnbxS1g-nRUa-35" target="qxSqduIqUvg-_wd7HPb_-4" edge="1">
          <mxGeometry relative="1" as="geometry" />
        </mxCell>
        <mxCell id="RadNlG-xPnbxS1g-nRUa-35" value="test_link" style="swimlane;fontStyle=0;childLayout=stackLayout;horizontal=1;startSize=26;horizontalStack=0;resizeParent=1;resizeParentMax=0;resizeLast=0;collapsible=1;marginBottom=0;align=center;fontSize=14;" parent="1" vertex="1">
          <mxGeometry x="420" y="-130" width="204" height="416" as="geometry" />
        </mxCell>
        <mxCell id="RadNlG-xPnbxS1g-nRUa-36" value="id" style="text;strokeColor=none;fillColor=none;spacingLeft=4;spacingRight=4;overflow=hidden;rotatable=0;points=[[0,0.5],[1,0.5]];portConstraint=eastwest;fontSize=12;" parent="RadNlG-xPnbxS1g-nRUa-35" vertex="1">
          <mxGeometry y="26" width="204" height="30" as="geometry" />
        </mxCell>
        <mxCell id="qxSqduIqUvg-_wd7HPb_-31" value="test_id" style="text;strokeColor=none;fillColor=none;spacingLeft=4;spacingRight=4;overflow=hidden;rotatable=0;points=[[0,0.5],[1,0.5]];portConstraint=eastwest;fontSize=12;" parent="RadNlG-xPnbxS1g-nRUa-35" vertex="1">
          <mxGeometry y="56" width="204" height="30" as="geometry" />
        </mxCell>
        <mxCell id="RadNlG-xPnbxS1g-nRUa-38" value="status_id" style="text;strokeColor=none;fillColor=none;spacingLeft=4;spacingRight=4;overflow=hidden;rotatable=0;points=[[0,0.5],[1,0.5]];portConstraint=eastwest;fontSize=12;" parent="RadNlG-xPnbxS1g-nRUa-35" vertex="1">
          <mxGeometry y="86" width="204" height="30" as="geometry" />
        </mxCell>
        <mxCell id="RadNlG-xPnbxS1g-nRUa-41" value="type_id" style="text;strokeColor=none;fillColor=none;spacingLeft=4;spacingRight=4;overflow=hidden;rotatable=0;points=[[0,0.5],[1,0.5]];portConstraint=eastwest;fontSize=12;" parent="RadNlG-xPnbxS1g-nRUa-35" vertex="1">
          <mxGeometry y="116" width="204" height="30" as="geometry" />
        </mxCell>
        <mxCell id="RadNlG-xPnbxS1g-nRUa-42" value="user_id" style="text;strokeColor=none;fillColor=none;spacingLeft=4;spacingRight=4;overflow=hidden;rotatable=0;points=[[0,0.5],[1,0.5]];portConstraint=eastwest;fontSize=12;" parent="RadNlG-xPnbxS1g-nRUa-35" vertex="1">
          <mxGeometry y="146" width="204" height="30" as="geometry" />
        </mxCell>
        <mxCell id="qxSqduIqUvg-_wd7HPb_-2" value="group_id" style="text;strokeColor=none;fillColor=none;spacingLeft=4;spacingRight=4;overflow=hidden;rotatable=0;points=[[0,0.5],[1,0.5]];portConstraint=eastwest;fontSize=12;" parent="RadNlG-xPnbxS1g-nRUa-35" vertex="1">
          <mxGeometry y="176" width="204" height="30" as="geometry" />
        </mxCell>
        <mxCell id="RadNlG-xPnbxS1g-nRUa-39" value="limit_candidate_count" style="text;strokeColor=none;fillColor=none;spacingLeft=4;spacingRight=4;overflow=hidden;rotatable=0;points=[[0,0.5],[1,0.5]];portConstraint=eastwest;fontSize=12;" parent="RadNlG-xPnbxS1g-nRUa-35" vertex="1">
          <mxGeometry y="206" width="204" height="30" as="geometry" />
        </mxCell>
        <mxCell id="RadNlG-xPnbxS1g-nRUa-40" value="candidate_count" style="text;strokeColor=none;fillColor=none;spacingLeft=4;spacingRight=4;overflow=hidden;rotatable=0;points=[[0,0.5],[1,0.5]];portConstraint=eastwest;fontSize=12;" parent="RadNlG-xPnbxS1g-nRUa-35" vertex="1">
          <mxGeometry y="236" width="204" height="30" as="geometry" />
        </mxCell>
        <mxCell id="ugmiFwaeewbSjO0Sd7z2-1" value="title" style="text;strokeColor=none;fillColor=none;spacingLeft=4;spacingRight=4;overflow=hidden;rotatable=0;points=[[0,0.5],[1,0.5]];portConstraint=eastwest;fontSize=12;" parent="RadNlG-xPnbxS1g-nRUa-35" vertex="1">
          <mxGeometry y="266" width="204" height="30" as="geometry" />
        </mxCell>
        <mxCell id="EOAoEJrb8vXbgL092nDe-1" value="link" style="text;strokeColor=none;fillColor=none;spacingLeft=4;spacingRight=4;overflow=hidden;rotatable=0;points=[[0,0.5],[1,0.5]];portConstraint=eastwest;fontSize=12;" parent="RadNlG-xPnbxS1g-nRUa-35" vertex="1">
          <mxGeometry y="296" width="204" height="30" as="geometry" />
        </mxCell>
        <mxCell id="RadNlG-xPnbxS1g-nRUa-43" value="date_create" style="text;strokeColor=none;fillColor=none;spacingLeft=4;spacingRight=4;overflow=hidden;rotatable=0;points=[[0,0.5],[1,0.5]];portConstraint=eastwest;fontSize=12;" parent="RadNlG-xPnbxS1g-nRUa-35" vertex="1">
          <mxGeometry y="326" width="204" height="30" as="geometry" />
        </mxCell>
        <mxCell id="RadNlG-xPnbxS1g-nRUa-45" value="date_expired" style="text;strokeColor=none;fillColor=none;spacingLeft=4;spacingRight=4;overflow=hidden;rotatable=0;points=[[0,0.5],[1,0.5]];portConstraint=eastwest;fontSize=12;" parent="RadNlG-xPnbxS1g-nRUa-35" vertex="1">
          <mxGeometry y="356" width="204" height="30" as="geometry" />
        </mxCell>
        <mxCell id="RadNlG-xPnbxS1g-nRUa-46" value="date_closed" style="text;strokeColor=none;fillColor=none;spacingLeft=4;spacingRight=4;overflow=hidden;rotatable=0;points=[[0,0.5],[1,0.5]];portConstraint=eastwest;fontSize=12;" parent="RadNlG-xPnbxS1g-nRUa-35" vertex="1">
          <mxGeometry y="386" width="204" height="30" as="geometry" />
        </mxCell>
        <mxCell id="RadNlG-xPnbxS1g-nRUa-48" value="test_link_status" style="swimlane;fontStyle=0;childLayout=stackLayout;horizontal=1;startSize=26;horizontalStack=0;resizeParent=1;resizeParentMax=0;resizeLast=0;collapsible=1;marginBottom=0;align=center;fontSize=14;" parent="1" vertex="1">
          <mxGeometry x="320" y="-247" width="160" height="86" as="geometry" />
        </mxCell>
        <mxCell id="RadNlG-xPnbxS1g-nRUa-49" value="id" style="text;strokeColor=none;fillColor=none;spacingLeft=4;spacingRight=4;overflow=hidden;rotatable=0;points=[[0,0.5],[1,0.5]];portConstraint=eastwest;fontSize=12;" parent="RadNlG-xPnbxS1g-nRUa-48" vertex="1">
          <mxGeometry y="26" width="160" height="30" as="geometry" />
        </mxCell>
        <mxCell id="RadNlG-xPnbxS1g-nRUa-50" value="title" style="text;strokeColor=none;fillColor=none;spacingLeft=4;spacingRight=4;overflow=hidden;rotatable=0;points=[[0,0.5],[1,0.5]];portConstraint=eastwest;fontSize=12;" parent="RadNlG-xPnbxS1g-nRUa-48" vertex="1">
          <mxGeometry y="56" width="160" height="30" as="geometry" />
        </mxCell>
        <mxCell id="RadNlG-xPnbxS1g-nRUa-52" value="test_link_type" style="swimlane;fontStyle=0;childLayout=stackLayout;horizontal=1;startSize=26;horizontalStack=0;resizeParent=1;resizeParentMax=0;resizeLast=0;collapsible=1;marginBottom=0;align=center;fontSize=14;" parent="1" vertex="1">
          <mxGeometry x="570" y="-247" width="160" height="86" as="geometry" />
        </mxCell>
        <mxCell id="RadNlG-xPnbxS1g-nRUa-53" value="id" style="text;strokeColor=none;fillColor=none;spacingLeft=4;spacingRight=4;overflow=hidden;rotatable=0;points=[[0,0.5],[1,0.5]];portConstraint=eastwest;fontSize=12;" parent="RadNlG-xPnbxS1g-nRUa-52" vertex="1">
          <mxGeometry y="26" width="160" height="30" as="geometry" />
        </mxCell>
        <mxCell id="RadNlG-xPnbxS1g-nRUa-54" value="title" style="text;strokeColor=none;fillColor=none;spacingLeft=4;spacingRight=4;overflow=hidden;rotatable=0;points=[[0,0.5],[1,0.5]];portConstraint=eastwest;fontSize=12;" parent="RadNlG-xPnbxS1g-nRUa-52" vertex="1">
          <mxGeometry y="56" width="160" height="30" as="geometry" />
        </mxCell>
        <mxCell id="RadNlG-xPnbxS1g-nRUa-56" style="edgeStyle=orthogonalEdgeStyle;rounded=0;orthogonalLoop=1;jettySize=auto;html=1;" parent="1" source="RadNlG-xPnbxS1g-nRUa-36" edge="1">
          <mxGeometry relative="1" as="geometry">
            <mxPoint x="390" y="-161" as="targetPoint" />
            <Array as="points">
              <mxPoint x="390" y="-89" />
              <mxPoint x="390" y="-161" />
            </Array>
          </mxGeometry>
        </mxCell>
        <mxCell id="8al2ZyJpWk22SOQN3KEk-1" value="user (auth)" style="swimlane;fontStyle=0;childLayout=stackLayout;horizontal=1;startSize=26;horizontalStack=0;resizeParent=1;resizeParentMax=0;resizeLast=0;collapsible=1;marginBottom=0;align=center;fontSize=14;fillColor=#dae8fc;strokeColor=#6c8ebf;" parent="1" vertex="1">
          <mxGeometry x="200" y="140" width="160" height="116" as="geometry" />
        </mxCell>
        <mxCell id="8al2ZyJpWk22SOQN3KEk-2" value="id" style="text;strokeColor=none;fillColor=none;spacingLeft=4;spacingRight=4;overflow=hidden;rotatable=0;points=[[0,0.5],[1,0.5]];portConstraint=eastwest;fontSize=12;" parent="8al2ZyJpWk22SOQN3KEk-1" vertex="1">
          <mxGeometry y="26" width="160" height="30" as="geometry" />
        </mxCell>
        <mxCell id="ir9r-7l_EKN089zj04TM-1" value="username" style="text;strokeColor=none;fillColor=none;spacingLeft=4;spacingRight=4;overflow=hidden;rotatable=0;points=[[0,0.5],[1,0.5]];portConstraint=eastwest;fontSize=12;" parent="8al2ZyJpWk22SOQN3KEk-1" vertex="1">
          <mxGeometry y="56" width="160" height="30" as="geometry" />
        </mxCell>
        <mxCell id="ir9r-7l_EKN089zj04TM-2" value="photo" style="text;strokeColor=none;fillColor=none;spacingLeft=4;spacingRight=4;overflow=hidden;rotatable=0;points=[[0,0.5],[1,0.5]];portConstraint=eastwest;fontSize=12;" parent="8al2ZyJpWk22SOQN3KEk-1" vertex="1">
          <mxGeometry y="86" width="160" height="30" as="geometry" />
        </mxCell>
        <mxCell id="EOAoEJrb8vXbgL092nDe-28" value="" style="edgeStyle=orthogonalEdgeStyle;rounded=0;orthogonalLoop=1;jettySize=auto;html=1;" parent="1" source="8al2ZyJpWk22SOQN3KEk-6" target="8al2ZyJpWk22SOQN3KEk-18" edge="1">
          <mxGeometry relative="1" as="geometry">
            <Array as="points">
              <mxPoint x="860" y="-140" />
              <mxPoint x="860" y="-140" />
            </Array>
          </mxGeometry>
        </mxCell>
        <mxCell id="EOAoEJrb8vXbgL092nDe-29" style="edgeStyle=orthogonalEdgeStyle;rounded=0;orthogonalLoop=1;jettySize=auto;html=1;" parent="1" source="8al2ZyJpWk22SOQN3KEk-6" target="qxSqduIqUvg-_wd7HPb_-23" edge="1">
          <mxGeometry relative="1" as="geometry">
            <Array as="points">
              <mxPoint x="1045" y="-100" />
            </Array>
          </mxGeometry>
        </mxCell>
        <mxCell id="8al2ZyJpWk22SOQN3KEk-6" value="test_link_response" style="swimlane;fontStyle=0;childLayout=stackLayout;horizontal=1;startSize=26;horizontalStack=0;resizeParent=1;resizeParentMax=0;resizeLast=0;collapsible=1;marginBottom=0;align=center;fontSize=14;" parent="1" vertex="1">
          <mxGeometry x="760" y="-130" width="200" height="206" as="geometry" />
        </mxCell>
        <mxCell id="8al2ZyJpWk22SOQN3KEk-7" value="id" style="text;strokeColor=none;fillColor=none;spacingLeft=4;spacingRight=4;overflow=hidden;rotatable=0;points=[[0,0.5],[1,0.5]];portConstraint=eastwest;fontSize=12;" parent="8al2ZyJpWk22SOQN3KEk-6" vertex="1">
          <mxGeometry y="26" width="200" height="30" as="geometry" />
        </mxCell>
        <mxCell id="8al2ZyJpWk22SOQN3KEk-21" value="test_link_id" style="text;strokeColor=none;fillColor=none;spacingLeft=4;spacingRight=4;overflow=hidden;rotatable=0;points=[[0,0.5],[1,0.5]];portConstraint=eastwest;fontSize=12;" parent="8al2ZyJpWk22SOQN3KEk-6" vertex="1">
          <mxGeometry y="56" width="200" height="30" as="geometry" />
        </mxCell>
        <mxCell id="8al2ZyJpWk22SOQN3KEk-8" value="status_id" style="text;strokeColor=none;fillColor=none;spacingLeft=4;spacingRight=4;overflow=hidden;rotatable=0;points=[[0,0.5],[1,0.5]];portConstraint=eastwest;fontSize=12;" parent="8al2ZyJpWk22SOQN3KEk-6" vertex="1">
          <mxGeometry y="86" width="200" height="30" as="geometry" />
        </mxCell>
        <mxCell id="EOAoEJrb8vXbgL092nDe-10" value="user_id" style="text;strokeColor=none;fillColor=none;spacingLeft=4;spacingRight=4;overflow=hidden;rotatable=0;points=[[0,0.5],[1,0.5]];portConstraint=eastwest;fontSize=12;" parent="8al2ZyJpWk22SOQN3KEk-6" vertex="1">
          <mxGeometry y="116" width="200" height="30" as="geometry" />
        </mxCell>
        <mxCell id="8al2ZyJpWk22SOQN3KEk-9" value="date_create" style="text;strokeColor=none;fillColor=none;spacingLeft=4;spacingRight=4;overflow=hidden;rotatable=0;points=[[0,0.5],[1,0.5]];portConstraint=eastwest;fontSize=12;" parent="8al2ZyJpWk22SOQN3KEk-6" vertex="1">
          <mxGeometry y="146" width="200" height="30" as="geometry" />
        </mxCell>
        <mxCell id="qxSqduIqUvg-_wd7HPb_-24" value="test_generated_link" style="text;strokeColor=none;fillColor=none;spacingLeft=4;spacingRight=4;overflow=hidden;rotatable=0;points=[[0,0.5],[1,0.5]];portConstraint=eastwest;fontSize=12;" parent="8al2ZyJpWk22SOQN3KEk-6" vertex="1">
          <mxGeometry y="176" width="200" height="30" as="geometry" />
        </mxCell>
        <mxCell id="8al2ZyJpWk22SOQN3KEk-16" value="test_link_response_status" style="swimlane;fontStyle=0;childLayout=stackLayout;horizontal=1;startSize=26;horizontalStack=0;resizeParent=1;resizeParentMax=0;resizeLast=0;collapsible=1;marginBottom=0;align=center;fontSize=14;" parent="1" vertex="1">
          <mxGeometry x="770" y="-251" width="180" height="86" as="geometry" />
        </mxCell>
        <mxCell id="8al2ZyJpWk22SOQN3KEk-17" value="id" style="text;strokeColor=none;fillColor=none;spacingLeft=4;spacingRight=4;overflow=hidden;rotatable=0;points=[[0,0.5],[1,0.5]];portConstraint=eastwest;fontSize=12;" parent="8al2ZyJpWk22SOQN3KEk-16" vertex="1">
          <mxGeometry y="26" width="180" height="30" as="geometry" />
        </mxCell>
        <mxCell id="8al2ZyJpWk22SOQN3KEk-18" value="title" style="text;strokeColor=none;fillColor=none;spacingLeft=4;spacingRight=4;overflow=hidden;rotatable=0;points=[[0,0.5],[1,0.5]];portConstraint=eastwest;fontSize=12;" parent="8al2ZyJpWk22SOQN3KEk-16" vertex="1">
          <mxGeometry y="56" width="180" height="30" as="geometry" />
        </mxCell>
        <mxCell id="qxSqduIqUvg-_wd7HPb_-18" value="" style="edgeStyle=orthogonalEdgeStyle;rounded=0;orthogonalLoop=1;jettySize=auto;html=1;" parent="1" source="8al2ZyJpWk22SOQN3KEk-29" target="qxSqduIqUvg-_wd7HPb_-17" edge="1">
          <mxGeometry relative="1" as="geometry">
            <Array as="points">
              <mxPoint x="1065" y="120" />
              <mxPoint x="1065" y="120" />
            </Array>
          </mxGeometry>
        </mxCell>
        <mxCell id="YD5V1xq_9l9WpEXR-EA5-3" style="edgeStyle=orthogonalEdgeStyle;rounded=0;orthogonalLoop=1;jettySize=auto;html=1;" parent="1" source="8al2ZyJpWk22SOQN3KEk-29" target="YD5V1xq_9l9WpEXR-EA5-2" edge="1">
          <mxGeometry relative="1" as="geometry">
            <Array as="points">
              <mxPoint x="1215" y="120" />
              <mxPoint x="1215" y="120" />
            </Array>
          </mxGeometry>
        </mxCell>
        <mxCell id="8al2ZyJpWk22SOQN3KEk-29" value="test_result" style="swimlane;fontStyle=0;childLayout=stackLayout;horizontal=1;startSize=26;horizontalStack=0;resizeParent=1;resizeParentMax=0;resizeLast=0;collapsible=1;marginBottom=0;align=center;fontSize=14;" parent="1" vertex="1">
          <mxGeometry x="1020" y="-70" width="230" height="176" as="geometry" />
        </mxCell>
        <mxCell id="8al2ZyJpWk22SOQN3KEk-30" value="id" style="text;strokeColor=none;fillColor=none;spacingLeft=4;spacingRight=4;overflow=hidden;rotatable=0;points=[[0,0.5],[1,0.5]];portConstraint=eastwest;fontSize=12;" parent="8al2ZyJpWk22SOQN3KEk-29" vertex="1">
          <mxGeometry y="26" width="230" height="30" as="geometry" />
        </mxCell>
        <mxCell id="8al2ZyJpWk22SOQN3KEk-31" value="test_link_response_id" style="text;strokeColor=none;fillColor=none;spacingLeft=4;spacingRight=4;overflow=hidden;rotatable=0;points=[[0,0.5],[1,0.5]];portConstraint=eastwest;fontSize=12;" parent="8al2ZyJpWk22SOQN3KEk-29" vertex="1">
          <mxGeometry y="56" width="230" height="30" as="geometry" />
        </mxCell>
        <mxCell id="qxSqduIqUvg-_wd7HPb_-10" value="is_passed" style="text;strokeColor=none;fillColor=none;spacingLeft=4;spacingRight=4;overflow=hidden;rotatable=0;points=[[0,0.5],[1,0.5]];portConstraint=eastwest;fontSize=12;" parent="8al2ZyJpWk22SOQN3KEk-29" vertex="1">
          <mxGeometry y="86" width="230" height="30" as="geometry" />
        </mxCell>
        <mxCell id="8al2ZyJpWk22SOQN3KEk-32" value="test_result_link" style="text;strokeColor=none;fillColor=none;spacingLeft=4;spacingRight=4;overflow=hidden;rotatable=0;points=[[0,0.5],[1,0.5]];portConstraint=eastwest;fontSize=12;" parent="8al2ZyJpWk22SOQN3KEk-29" vertex="1">
          <mxGeometry y="116" width="230" height="30" as="geometry" />
        </mxCell>
        <mxCell id="YD5V1xq_9l9WpEXR-EA5-1" value="test_template_statistics_link" style="text;strokeColor=none;fillColor=none;spacingLeft=4;spacingRight=4;overflow=hidden;rotatable=0;points=[[0,0.5],[1,0.5]];portConstraint=eastwest;fontSize=12;" parent="8al2ZyJpWk22SOQN3KEk-29" vertex="1">
          <mxGeometry y="146" width="230" height="30" as="geometry" />
        </mxCell>
        <mxCell id="qxSqduIqUvg-_wd7HPb_-1" style="edgeStyle=orthogonalEdgeStyle;rounded=0;orthogonalLoop=1;jettySize=auto;html=1;entryX=0.5;entryY=1;entryDx=0;entryDy=0;" parent="1" source="RadNlG-xPnbxS1g-nRUa-36" target="RadNlG-xPnbxS1g-nRUa-52" edge="1">
          <mxGeometry relative="1" as="geometry" />
        </mxCell>
        <mxCell id="qxSqduIqUvg-_wd7HPb_-4" value="group (auth)" style="swimlane;fontStyle=0;childLayout=stackLayout;horizontal=1;startSize=26;horizontalStack=0;resizeParent=1;resizeParentMax=0;resizeLast=0;collapsible=1;marginBottom=0;align=center;fontSize=14;fillColor=#dae8fc;strokeColor=#6c8ebf;" parent="1" vertex="1">
          <mxGeometry x="442" y="310" width="160" height="86" as="geometry" />
        </mxCell>
        <mxCell id="qxSqduIqUvg-_wd7HPb_-5" value="id" style="text;strokeColor=none;fillColor=none;spacingLeft=4;spacingRight=4;overflow=hidden;rotatable=0;points=[[0,0.5],[1,0.5]];portConstraint=eastwest;fontSize=12;" parent="qxSqduIqUvg-_wd7HPb_-4" vertex="1">
          <mxGeometry y="26" width="160" height="30" as="geometry" />
        </mxCell>
        <mxCell id="qxSqduIqUvg-_wd7HPb_-7" value="title" style="text;strokeColor=none;fillColor=none;spacingLeft=4;spacingRight=4;overflow=hidden;rotatable=0;points=[[0,0.5],[1,0.5]];portConstraint=eastwest;fontSize=12;" parent="qxSqduIqUvg-_wd7HPb_-4" vertex="1">
          <mxGeometry y="56" width="160" height="30" as="geometry" />
        </mxCell>
        <mxCell id="qxSqduIqUvg-_wd7HPb_-15" value="test_template" style="shape=note;size=20;whiteSpace=wrap;html=1;" parent="1" vertex="1">
          <mxGeometry x="70" y="-87" width="90" height="90" as="geometry" />
        </mxCell>
        <mxCell id="qxSqduIqUvg-_wd7HPb_-17" value="test_result" style="shape=note;size=20;whiteSpace=wrap;html=1;" parent="1" vertex="1">
          <mxGeometry x="1020" y="170" width="90" height="90" as="geometry" />
        </mxCell>
        <mxCell id="qxSqduIqUvg-_wd7HPb_-23" value="test_generated" style="shape=note;size=20;whiteSpace=wrap;html=1;" parent="1" vertex="1">
          <mxGeometry x="1000" y="-251" width="90" height="90" as="geometry" />
        </mxCell>
        <mxCell id="6_OY5yNYIMLlSlW97ewB-11" style="edgeStyle=orthogonalEdgeStyle;rounded=0;orthogonalLoop=1;jettySize=auto;html=1;entryX=0.5;entryY=0;entryDx=0;entryDy=0;" parent="1" source="qxSqduIqUvg-_wd7HPb_-27" target="8al2ZyJpWk22SOQN3KEk-1" edge="1">
          <mxGeometry relative="1" as="geometry" />
        </mxCell>
        <mxCell id="qxSqduIqUvg-_wd7HPb_-27" value="test" style="swimlane;fontStyle=0;childLayout=stackLayout;horizontal=1;startSize=26;horizontalStack=0;resizeParent=1;resizeParentMax=0;resizeLast=0;collapsible=1;marginBottom=0;align=center;fontSize=14;" parent="1" vertex="1">
          <mxGeometry x="200" y="-130" width="160" height="176" as="geometry" />
        </mxCell>
        <mxCell id="qxSqduIqUvg-_wd7HPb_-28" value="id" style="text;strokeColor=none;fillColor=none;spacingLeft=4;spacingRight=4;overflow=hidden;rotatable=0;points=[[0,0.5],[1,0.5]];portConstraint=eastwest;fontSize=12;" parent="qxSqduIqUvg-_wd7HPb_-27" vertex="1">
          <mxGeometry y="26" width="160" height="30" as="geometry" />
        </mxCell>
        <mxCell id="EwsRbm4K0kIip_l9jerF-1" value="hr_id" style="text;strokeColor=none;fillColor=none;spacingLeft=4;spacingRight=4;overflow=hidden;rotatable=0;points=[[0,0.5],[1,0.5]];portConstraint=eastwest;fontSize=12;" parent="qxSqduIqUvg-_wd7HPb_-27" vertex="1">
          <mxGeometry y="56" width="160" height="30" as="geometry" />
        </mxCell>
        <mxCell id="qxSqduIqUvg-_wd7HPb_-29" value="title" style="text;strokeColor=none;fillColor=none;spacingLeft=4;spacingRight=4;overflow=hidden;rotatable=0;points=[[0,0.5],[1,0.5]];portConstraint=eastwest;fontSize=12;" parent="qxSqduIqUvg-_wd7HPb_-27" vertex="1">
          <mxGeometry y="86" width="160" height="30" as="geometry" />
        </mxCell>
        <mxCell id="qxSqduIqUvg-_wd7HPb_-30" value="description" style="text;strokeColor=none;fillColor=none;spacingLeft=4;spacingRight=4;overflow=hidden;rotatable=0;points=[[0,0.5],[1,0.5]];portConstraint=eastwest;fontSize=12;" parent="qxSqduIqUvg-_wd7HPb_-27" vertex="1">
          <mxGeometry y="116" width="160" height="30" as="geometry" />
        </mxCell>
        <mxCell id="6_OY5yNYIMLlSlW97ewB-5" value="test_template_link" style="text;strokeColor=none;fillColor=none;spacingLeft=4;spacingRight=4;overflow=hidden;rotatable=0;points=[[0,0.5],[1,0.5]];portConstraint=eastwest;fontSize=12;" parent="qxSqduIqUvg-_wd7HPb_-27" vertex="1">
          <mxGeometry y="146" width="160" height="30" as="geometry" />
        </mxCell>
        <mxCell id="6_OY5yNYIMLlSlW97ewB-6" style="edgeStyle=orthogonalEdgeStyle;rounded=0;orthogonalLoop=1;jettySize=auto;html=1;" parent="1" source="RadNlG-xPnbxS1g-nRUa-38" target="qxSqduIqUvg-_wd7HPb_-29" edge="1">
          <mxGeometry relative="1" as="geometry" />
        </mxCell>
        <mxCell id="6_OY5yNYIMLlSlW97ewB-10" style="edgeStyle=orthogonalEdgeStyle;rounded=0;orthogonalLoop=1;jettySize=auto;html=1;entryX=1.009;entryY=0.491;entryDx=0;entryDy=0;entryPerimeter=0;" parent="1" source="qxSqduIqUvg-_wd7HPb_-27" target="qxSqduIqUvg-_wd7HPb_-15" edge="1">
          <mxGeometry relative="1" as="geometry" />
        </mxCell>
        <mxCell id="EOAoEJrb8vXbgL092nDe-4" value="anonymous_user" style="swimlane;fontStyle=0;childLayout=stackLayout;horizontal=1;startSize=26;horizontalStack=0;resizeParent=1;resizeParentMax=0;resizeLast=0;collapsible=1;marginBottom=0;align=center;fontSize=14;" parent="1" vertex="1">
          <mxGeometry x="800" y="160" width="160" height="206" as="geometry" />
        </mxCell>
        <mxCell id="EOAoEJrb8vXbgL092nDe-5" value="id" style="text;strokeColor=none;fillColor=none;spacingLeft=4;spacingRight=4;overflow=hidden;rotatable=0;points=[[0,0.5],[1,0.5]];portConstraint=eastwest;fontSize=12;" parent="EOAoEJrb8vXbgL092nDe-4" vertex="1">
          <mxGeometry y="26" width="160" height="30" as="geometry" />
        </mxCell>
        <mxCell id="-Nv1Bd4pikjfJK8ZAaI5-1" value="test_link_response_id" style="text;strokeColor=none;fillColor=none;spacingLeft=4;spacingRight=4;overflow=hidden;rotatable=0;points=[[0,0.5],[1,0.5]];portConstraint=eastwest;fontSize=12;" parent="EOAoEJrb8vXbgL092nDe-4" vertex="1">
          <mxGeometry y="56" width="160" height="30" as="geometry" />
        </mxCell>
        <mxCell id="EOAoEJrb8vXbgL092nDe-6" value="first_name" style="text;strokeColor=none;fillColor=none;spacingLeft=4;spacingRight=4;overflow=hidden;rotatable=0;points=[[0,0.5],[1,0.5]];portConstraint=eastwest;fontSize=12;" parent="EOAoEJrb8vXbgL092nDe-4" vertex="1">
          <mxGeometry y="86" width="160" height="30" as="geometry" />
        </mxCell>
        <mxCell id="EOAoEJrb8vXbgL092nDe-7" value="middle_name" style="text;strokeColor=none;fillColor=none;spacingLeft=4;spacingRight=4;overflow=hidden;rotatable=0;points=[[0,0.5],[1,0.5]];portConstraint=eastwest;fontSize=12;" parent="EOAoEJrb8vXbgL092nDe-4" vertex="1">
          <mxGeometry y="116" width="160" height="30" as="geometry" />
        </mxCell>
        <mxCell id="EOAoEJrb8vXbgL092nDe-8" value="last_name" style="text;strokeColor=none;fillColor=none;spacingLeft=4;spacingRight=4;overflow=hidden;rotatable=0;points=[[0,0.5],[1,0.5]];portConstraint=eastwest;fontSize=12;" parent="EOAoEJrb8vXbgL092nDe-4" vertex="1">
          <mxGeometry y="146" width="160" height="30" as="geometry" />
        </mxCell>
        <mxCell id="EOAoEJrb8vXbgL092nDe-9" value="email" style="text;strokeColor=none;fillColor=none;spacingLeft=4;spacingRight=4;overflow=hidden;rotatable=0;points=[[0,0.5],[1,0.5]];portConstraint=eastwest;fontSize=12;" parent="EOAoEJrb8vXbgL092nDe-4" vertex="1">
          <mxGeometry y="176" width="160" height="30" as="geometry" />
        </mxCell>
        <mxCell id="EOAoEJrb8vXbgL092nDe-13" style="edgeStyle=orthogonalEdgeStyle;rounded=0;orthogonalLoop=1;jettySize=auto;html=1;" parent="1" source="qxSqduIqUvg-_wd7HPb_-24" edge="1">
          <mxGeometry relative="1" as="geometry">
            <Array as="points">
              <mxPoint x="770" y="410" />
              <mxPoint x="280" y="410" />
            </Array>
            <mxPoint x="280" y="260" as="targetPoint" />
          </mxGeometry>
        </mxCell>
        <mxCell id="EOAoEJrb8vXbgL092nDe-26" style="edgeStyle=orthogonalEdgeStyle;rounded=0;orthogonalLoop=1;jettySize=auto;html=1;entryX=1;entryY=0.5;entryDx=0;entryDy=0;" parent="1" source="8al2ZyJpWk22SOQN3KEk-31" target="EOAoEJrb8vXbgL092nDe-10" edge="1">
          <mxGeometry relative="1" as="geometry" />
        </mxCell>
        <mxCell id="EOAoEJrb8vXbgL092nDe-27" style="edgeStyle=orthogonalEdgeStyle;rounded=0;orthogonalLoop=1;jettySize=auto;html=1;entryX=1;entryY=0.5;entryDx=0;entryDy=0;" parent="1" source="EOAoEJrb8vXbgL092nDe-10" target="RadNlG-xPnbxS1g-nRUa-41" edge="1">
          <mxGeometry relative="1" as="geometry" />
        </mxCell>
        <mxCell id="-Nv1Bd4pikjfJK8ZAaI5-2" style="edgeStyle=orthogonalEdgeStyle;rounded=0;orthogonalLoop=1;jettySize=auto;html=1;" parent="1" source="EOAoEJrb8vXbgL092nDe-4" edge="1">
          <mxGeometry relative="1" as="geometry">
            <mxPoint x="879" y="80" as="targetPoint" />
            <Array as="points">
              <mxPoint x="880" y="118" />
              <mxPoint x="879" y="118" />
            </Array>
          </mxGeometry>
        </mxCell>
        <mxCell id="rWoQ7GX5XkjvUuVszChf-1" style="edgeStyle=orthogonalEdgeStyle;rounded=0;orthogonalLoop=1;jettySize=auto;html=1;entryX=1;entryY=0.5;entryDx=0;entryDy=0;" parent="1" source="EOAoEJrb8vXbgL092nDe-1" target="8al2ZyJpWk22SOQN3KEk-2" edge="1">
          <mxGeometry relative="1" as="geometry" />
        </mxCell>
        <mxCell id="YD5V1xq_9l9WpEXR-EA5-2" value="test_template_statistics" style="shape=note;size=20;whiteSpace=wrap;html=1;" parent="1" vertex="1">
          <mxGeometry x="1130" y="170" width="140" height="90" as="geometry" />
        </mxCell>
      </root>
    </mxGraphModel>
  </diagram>
</mxfile>
